<svg width="37" height="37" viewBox="0 0 37 37" fill="none" xmlns="http://www.w3.org/2000/svg">
<path d="M22.9546 25.1691C23.3825 24.8814 25.3222 22.7795 26.0199 22.5096C28.3286 21.6202 30.508 23.6768 32.2338 24.8858C34.7654 26.659 36.0746 28.2567 36.1299 29.6321C36.155 30.2718 35.9886 31.4409 35.4339 32.6277C34.7419 34.1089 32.9457 36.6066 28.7113 36.6642C22.5755 36.7524 16.4129 31.5244 11.1962 26.3961C5.982 21.2713 0.615092 15.171 0.361925 8.79693C0.299889 7.22303 0.553022 5.81815 1.11245 4.61977C2.58697 1.46616 5.65472 0.735179 6.71353 0.719281C8.36963 0.696908 10.2302 2.76827 11.4991 4.51009C12.7533 6.22958 15.0383 8.69101 14.3111 11.1307C13.3351 12.1077 12.1122 13.5213 11.6644 14.3665C11.5181 14.6812 11.4775 15.8248 15.8744 20.1469L16.4097 20.6748C20.8777 25.0675 22.1333 25.7274 22.9546 25.1691Z" fill="#34C759"/>
</svg>
