<svg width="59" height="36" viewBox="0 0 59 36" fill="none" xmlns="http://www.w3.org/2000/svg">
<path fill-rule="evenodd" clip-rule="evenodd" d="M58.8291 3.375C58.8291 1.51104 57.3854 0 55.6045 0H52.3799C50.599 0 49.1552 1.51104 49.1552 3.375V32.625C49.1552 34.489 50.599 36 52.3799 36H55.6045C57.3854 36 58.8291 34.489 58.8291 32.625V3.375ZM36.3576 7.19998H39.5822C41.3631 7.19998 42.8068 8.74729 42.8068 10.656V32.544C42.8068 34.4527 41.3631 36 39.5822 36H36.3576C34.5767 36 33.133 34.4527 33.133 32.544V10.656C33.133 8.74729 34.5767 7.19998 36.3576 7.19998ZM23.2575 15H20.0329C18.252 15 16.8083 16.567 16.8083 18.5V32.5C16.8083 34.433 18.252 36 20.0329 36H23.2575C25.0384 36 26.4821 34.433 26.4821 32.5V18.5C26.4821 16.567 25.0384 15 23.2575 15ZM7.23524 22.2H4.01063C2.22972 22.2 0.786011 23.7446 0.786011 25.65V32.55C0.786011 34.4554 2.22972 36 4.01063 36H7.23524C9.01615 36 10.4599 34.4554 10.4599 32.55V25.65C10.4599 23.7446 9.01615 22.2 7.23524 22.2Z" fill="white"/>
</svg>
