<svg width="62" height="63" viewBox="0 0 62 63" fill="none" xmlns="http://www.w3.org/2000/svg">
<path d="M39.1533 42.9776C39.8931 42.4799 43.2474 38.8452 44.454 38.3784C48.4464 36.8405 52.215 40.3968 55.1995 42.4875C59.5773 45.554 61.8412 48.3168 61.9368 50.6952C61.9802 51.8014 61.6926 53.8231 60.7333 55.8755C59.5366 58.4369 56.4305 62.7561 49.1081 62.8556C38.4976 63.0082 27.8409 53.9676 18.8197 45.0994C9.80303 36.2372 0.522198 25.6882 0.0844049 14.6656C-0.022873 11.9439 0.414862 9.5145 1.38226 7.44218C3.93211 1.98874 9.23708 0.724683 11.068 0.697192C13.9319 0.658503 17.1493 4.24044 19.3436 7.25252C21.5125 10.226 25.4637 14.4825 24.2062 18.7013C22.5186 20.3908 20.4039 22.8353 19.6294 24.297C19.3765 24.8411 19.3063 26.8188 26.9097 34.2927L27.8353 35.2056C35.5617 42.8018 37.733 43.9429 39.1533 42.9776Z" fill="white"/>
</svg>
