<svg width="77" height="29" viewBox="0 0 77 29" fill="none" xmlns="http://www.w3.org/2000/svg">
<path d="M76.633 16.5C75.1329 6 58.6329 0 37.6329 0C22.6329 0 1.13296 5.5 0.132927 16.5C-0.776193 26.5 3.13284 28 7.13287 28C10.1329 28 14.1329 27.5 19.1329 26.5C24.1329 25.5 24.633 22 24.633 20.5C24.633 17.5 23.1329 15 28.6329 14.5C34.1329 14 39.6306 13.5332 46.6329 14C54.1329 14.5 52.6329 17.5 52.6329 21C52.6329 22.5 53.1329 25 55.6329 25.5C58.1329 26 65.1329 27.5 70.1329 28C75.1329 28.5 77.9136 25.4644 76.633 16.5Z" fill="white"/>
</svg>
