<svg width="52" height="36" viewBox="0 0 52 36" fill="none" xmlns="http://www.w3.org/2000/svg">
<path fill-rule="evenodd" clip-rule="evenodd" d="M25.8975 7.20181C33.3541 7.20212 40.5256 9.8947 45.9297 14.723C46.3366 15.0958 46.9871 15.0911 47.3878 14.7125L51.2778 11.023C51.4808 10.831 51.5939 10.5709 51.5922 10.3003C51.5906 10.0296 51.4742 9.77077 51.2689 9.58099C37.0849 -3.19366 14.7079 -3.19366 0.523913 9.58099C0.318448 9.77063 0.201869 10.0294 0.199975 10.3C0.19808 10.5707 0.311025 10.8309 0.513818 11.023L4.40494 14.7125C4.80547 15.0917 5.45643 15.0964 5.86313 14.723C11.2679 9.89439 18.4402 7.2018 25.8975 7.20181ZM25.8921 19.5255C29.9614 19.5252 33.8856 21.0196 36.902 23.7181C37.31 24.1011 37.9527 24.0928 38.3504 23.6994L42.2098 19.8469C42.4131 19.6448 42.5258 19.3707 42.5229 19.0858C42.52 18.801 42.4016 18.5291 42.1942 18.3312C33.0086 9.8896 18.7834 9.8896 9.59775 18.3312C9.39026 18.5291 9.27188 18.8011 9.26915 19.086C9.26643 19.371 9.37959 19.6451 9.58326 19.8469L13.4415 23.6994C13.8392 24.0928 14.4819 24.1011 14.8899 23.7181C17.9044 21.0214 21.8254 19.5271 25.8921 19.5255ZM33.4535 27.683C33.4593 27.9906 33.3482 28.2872 33.1464 28.5027L26.6205 35.6708C26.4292 35.8814 26.1684 36 25.8963 36C25.6242 36 25.3633 35.8814 25.172 35.6708L18.6451 28.5027C18.4435 28.287 18.3326 27.9903 18.3385 27.6827C18.3445 27.3751 18.4669 27.0837 18.6767 26.8775C22.8443 23.0408 28.9482 23.0408 33.1159 26.8775C33.3256 27.0839 33.4477 27.3753 33.4535 27.683Z" fill="white"/>
</svg>
